<svg xmlns="http://www.w3.org/2000/svg" xmlns:xlink="http://www.w3.org/1999/xlink" width="500" zoomAndPan="magnify" viewBox="0 0 375 97.5" height="130" preserveAspectRatio="xMidYMid meet" version="1.0"><defs><g/><clipPath id="a54ae73b25"><path d="M 0.957031 0 L 374.042969 0 L 374.042969 97.003906 L 0.957031 97.003906 Z M 0.957031 0 " clip-rule="nonzero"/></clipPath><clipPath id="d553fde276"><path d="M 8.695312 0 L 334 0 L 334 62 L 8.695312 62 Z M 8.695312 0 " clip-rule="nonzero"/></clipPath></defs><g clip-path="url(#a54ae73b25)"><path fill="#ffffff" d="M 0.957031 0 L 374.042969 0 L 374.042969 97.003906 L 0.957031 97.003906 Z M 0.957031 0 " fill-opacity="1" fill-rule="nonzero"/><path fill="#ffffff" d="M 0.957031 0 L 374.042969 0 L 374.042969 97.003906 L 0.957031 97.003906 Z M 0.957031 0 " fill-opacity="1" fill-rule="nonzero"/></g><g clip-path="url(#d553fde276)"><path fill="#ffcc00" d="M 306.308594 0 L 36.070312 0 C 21.015625 0 8.695312 13.804688 8.695312 30.671875 C 8.695312 47.542969 21.015625 61.347656 36.070312 61.347656 L 306.308594 61.347656 C 321.367188 61.347656 333.683594 47.542969 333.683594 30.671875 C 333.683594 13.804688 321.367188 0 306.308594 0 " fill-opacity="1" fill-rule="nonzero"/></g><path fill="#191919" d="M 319.945312 18.5 C 319.582031 18.035156 318.996094 17.789062 318.414062 17.863281 C 318.109375 17.898438 317.828125 18.019531 317.589844 18.207031 L 307.515625 26.148438 C 306.792969 26.71875 306.664062 27.777344 307.230469 28.507812 C 307.589844 28.972656 308.175781 29.21875 308.761719 29.144531 C 309.0625 29.109375 309.347656 28.988281 309.585938 28.800781 L 319.65625 20.863281 C 320.378906 20.292969 320.507812 19.230469 319.945312 18.5 " fill-opacity="1" fill-rule="nonzero"/><path fill="#191919" d="M 286.695312 23.285156 L 278.8125 13.09375 C 278.449219 12.625 277.863281 12.382812 277.28125 12.453125 C 276.980469 12.492188 276.695312 12.609375 276.457031 12.796875 C 275.734375 13.367188 275.601562 14.429688 276.167969 15.160156 L 284.054688 25.351562 C 284.414062 25.820312 285 26.0625 285.585938 25.992188 C 285.886719 25.953125 286.167969 25.835938 286.410156 25.648438 C 287.132812 25.074219 287.261719 24.015625 286.695312 23.285156 " fill-opacity="1" fill-rule="nonzero"/><path fill="#191919" d="M 301.078125 6.605469 C 300.9375 6.589844 300.800781 6.589844 300.667969 6.605469 C 299.902344 6.703125 299.300781 7.304688 299.210938 8.074219 L 297.660156 20.894531 C 297.550781 21.816406 298.207031 22.660156 299.117188 22.773438 C 299.257812 22.792969 299.394531 22.792969 299.527344 22.773438 C 300.296875 22.679688 300.894531 22.074219 300.988281 21.308594 L 302.535156 8.484375 C 302.644531 7.5625 301.992188 6.722656 301.078125 6.605469 " fill-opacity="1" fill-rule="nonzero"/><path fill="#191919" d="M 286.734375 45.683594 C 286.375 45.214844 285.789062 44.972656 285.207031 45.046875 C 284.90625 45.082031 284.617188 45.203125 284.382812 45.390625 L 274.308594 53.328125 C 273.585938 53.898438 273.457031 54.960938 274.019531 55.691406 C 274.382812 56.15625 274.96875 56.402344 275.554688 56.328125 C 275.851562 56.292969 276.136719 56.171875 276.378906 55.984375 L 286.449219 48.042969 C 287.171875 47.472656 287.300781 46.414062 286.734375 45.683594 " fill-opacity="1" fill-rule="nonzero"/><path fill="#191919" d="M 279.507812 34.570312 L 266.8125 32.976562 C 266.675781 32.960938 266.535156 32.960938 266.402344 32.976562 C 265.636719 33.074219 265.039062 33.675781 264.945312 34.445312 C 264.835938 35.367188 265.488281 36.207031 266.402344 36.324219 L 279.101562 37.917969 C 279.234375 37.933594 279.375 37.933594 279.507812 37.917969 C 279.511719 37.917969 279.507812 37.917969 279.511719 37.917969 C 280.277344 37.824219 280.875 37.21875 280.96875 36.449219 C 281.078125 35.53125 280.425781 34.6875 279.507812 34.570312 " fill-opacity="1" fill-rule="nonzero"/><path fill="#1e1e1e" d="M 354.597656 90.550781 C 348.808594 94.945312 342.25 97.003906 337.046875 96.054688 C 329.222656 94.632812 320.363281 90.90625 312.539062 87.621094 C 310.808594 86.894531 309.121094 86.183594 307.492188 85.519531 C 307.15625 85.382812 306.722656 85.222656 306.214844 85.03125 C 300.957031 83.058594 295.25 80.613281 294.070312 76.523438 C 293.722656 75.308594 293.636719 73.433594 295.207031 71.371094 C 295.488281 71 295.824219 70.664062 296.207031 70.375 C 299.726562 67.703125 306.234375 69.222656 313.160156 71.160156 C 313.210938 71.171875 313.261719 71.1875 313.316406 71.199219 C 310.960938 68.144531 308.519531 65.078125 306.140625 62.097656 C 300.367188 54.851562 294.394531 47.355469 289.304688 39.519531 C 287.640625 36.957031 288.460938 33.214844 291.140625 31.179688 C 293.5 29.390625 296.601562 29.449219 299.234375 31.335938 L 299.515625 31.539062 L 311.820312 47.757812 C 311.855469 46.167969 312.519531 44.769531 313.761719 43.828125 C 314.320312 43.402344 314.980469 43.082031 315.730469 42.875 C 318.589844 42.089844 321.101562 44.183594 322.050781 45.121094 C 322.632812 45.699219 323.195312 46.320312 323.746094 46.960938 C 323.28125 43.875 324.695312 42.359375 325.453125 41.785156 C 327.726562 40.058594 331.152344 40.800781 334.179688 43.667969 C 334.664062 44.125 335.132812 44.605469 335.589844 45.089844 C 335.105469 43.300781 335.261719 41.449219 337.089844 40.0625 C 337.257812 39.933594 337.4375 39.8125 337.628906 39.703125 C 340.488281 38.074219 344.09375 38.882812 346.398438 41.679688 C 347.421875 42.917969 349.660156 45.546875 349.660156 45.546875 C 350.046875 46.015625 358.84375 56.621094 361.761719 61.972656 C 364.210938 66.453125 366.117188 73.238281 362.949219 80.5625 C 361.421875 84.085938 358.445312 87.628906 354.597656 90.550781 " fill-opacity="1" fill-rule="nonzero"/><path fill="#ffffff" d="M 339.691406 93.398438 C 338.953125 93.398438 338.238281 93.335938 337.5625 93.214844 C 330.050781 91.84375 321.339844 88.183594 313.65625 84.957031 C 311.886719 84.214844 310.21875 83.515625 308.582031 82.847656 C 308.222656 82.699219 307.761719 82.527344 307.226562 82.328125 C 304.144531 81.167969 297.71875 78.757812 296.847656 75.722656 C 296.601562 74.875 296.816406 74.023438 297.5 73.121094 C 298.152344 72.269531 299.492188 71.832031 301.476562 71.832031 C 304.851562 71.832031 309.382812 73.101562 312.382812 73.941406 C 313.414062 74.226562 314.300781 74.476562 314.953125 74.625 C 315.097656 74.65625 315.242188 74.671875 315.382812 74.671875 C 316.121094 74.671875 316.78125 74.242188 317.140625 73.515625 C 317.515625 72.757812 317.453125 71.867188 316.980469 71.246094 C 314.195312 67.574219 311.25 63.875 308.398438 60.300781 C 302.667969 53.105469 296.738281 45.664062 291.722656 37.945312 C 291.164062 37.085938 291.183594 35.871094 291.777344 34.78125 C 292.308594 33.804688 293.429688 32.757812 294.980469 32.757812 C 295.808594 32.757812 296.644531 33.054688 297.480469 33.636719 L 314.472656 56.042969 C 314.890625 56.578125 315.460938 56.871094 316.085938 56.871094 C 316.894531 56.871094 317.6875 56.375 318.066406 55.636719 C 318.421875 54.933594 318.347656 54.148438 317.863281 53.480469 L 315.816406 50.785156 C 315.484375 50.304688 315.195312 49.875 315.027344 49.449219 C 314.625 48.433594 314.59375 47.492188 314.933594 46.808594 C 315.210938 46.257812 315.734375 45.871094 316.496094 45.660156 C 316.65625 45.617188 316.824219 45.59375 317 45.59375 C 318.316406 45.59375 319.640625 46.804688 320.015625 47.175781 C 321.054688 48.203125 322.082031 49.460938 323.074219 50.675781 C 323.8125 51.582031 324.582031 52.519531 325.339844 53.347656 C 325.773438 53.820312 326.347656 54.082031 326.953125 54.082031 C 327.777344 54.082031 328.570312 53.597656 328.933594 52.878906 C 329.277344 52.191406 329.1875 51.414062 328.691406 50.742188 C 328.554688 50.5625 328.410156 50.375 328.269531 50.199219 C 327.847656 49.664062 327.414062 49.109375 327.1875 48.554688 C 326.449219 46.738281 326.339844 45.230469 326.882812 44.417969 C 327.175781 43.988281 327.640625 43.765625 328.273438 43.765625 C 329.421875 43.765625 330.851562 44.496094 332.195312 45.769531 C 333.285156 46.800781 334.335938 47.984375 335.351562 49.136719 C 336.03125 49.902344 336.730469 50.695312 337.441406 51.4375 C 337.890625 51.90625 338.46875 52.164062 339.074219 52.164062 C 339.855469 52.164062 340.566406 51.75 340.9375 51.082031 C 341.3125 50.40625 341.269531 49.597656 340.808594 48.863281 C 340.671875 48.640625 340.507812 48.390625 340.335938 48.125 C 339.398438 46.6875 337.980469 44.507812 338.308594 43.144531 C 338.402344 42.753906 338.648438 42.449219 339.058594 42.214844 C 339.597656 41.90625 340.171875 41.75 340.769531 41.75 C 341.984375 41.75 343.257812 42.410156 344.171875 43.519531 C 345.191406 44.753906 347.433594 47.394531 347.457031 47.421875 C 347.542969 47.523438 356.441406 58.25 359.230469 63.355469 C 361.390625 67.316406 362.808594 73.613281 360.300781 79.410156 C 358.839844 82.78125 355.753906 86.277344 351.835938 89 C 347.808594 91.796875 343.382812 93.398438 339.691406 93.398438 " fill-opacity="1" fill-rule="nonzero"/><g fill="#000000" fill-opacity="1"><g transform="translate(30.179705, 52.14917)"><g><path d="M 9.625 -34.984375 L 9.625 -27.84375 L 3.578125 -27.84375 L 3.578125 -39.546875 L 25.296875 -39.546875 L 25.296875 -41.734375 L 7.5 -41.734375 L 7.5 -46.796875 L 49.96875 -46.796875 L 49.96875 -41.734375 L 31.984375 -41.734375 L 31.984375 -39.546875 L 54.1875 -39.546875 L 54.1875 -27.84375 L 47.84375 -27.84375 L 47.84375 -34.984375 L 31.984375 -34.984375 L 31.984375 -23 L 25.296875 -23 L 25.296875 -34.984375 Z M 34.1875 -23.578125 L 34.1875 -27.328125 L 46.75 -27.328125 L 46.75 -23.578125 Z M 34.1875 -33.03125 L 45.421875 -33.03125 L 45.421875 -29.34375 L 34.1875 -29.34375 Z M 23.234375 -33.03125 L 23.234375 -29.34375 L 11.875 -29.34375 L 11.875 -33.03125 Z M 10.78125 -23.578125 L 10.78125 -27.328125 L 23.234375 -27.328125 L 23.234375 -23.578125 Z M 15.390625 -7.671875 L 24.953125 -7.671875 L 24.953125 -10.140625 L 15.390625 -10.140625 Z M 24.953125 -16.828125 L 15.390625 -16.828125 L 15.390625 -14.296875 L 24.953125 -14.296875 Z M 41.96875 -14.296875 L 41.96875 -16.828125 L 31.53125 -16.828125 L 31.53125 -14.296875 Z M 31.53125 -7.671875 L 41.96875 -7.671875 L 41.96875 -10.140625 L 31.53125 -10.140625 Z M 35.671875 -0.40625 L 46.578125 -0.40625 C 47.535156 -0.40625 48.265625 -0.546875 48.765625 -0.828125 C 49.265625 -1.117188 49.628906 -1.675781 49.859375 -2.5 C 50.085938 -3.332031 50.257812 -4.554688 50.375 -6.171875 C 51.070312 -5.671875 51.984375 -5.226562 53.109375 -4.84375 C 54.242188 -4.457031 55.234375 -4.171875 56.078125 -3.984375 C 55.816406 -1.671875 55.382812 0.113281 54.78125 1.375 C 54.1875 2.644531 53.289062 3.539062 52.09375 4.0625 C 50.90625 4.582031 49.257812 4.84375 47.15625 4.84375 L 35.046875 4.84375 C 32.429688 4.84375 30.382812 4.617188 28.90625 4.171875 C 27.425781 3.734375 26.394531 2.945312 25.8125 1.8125 C 25.238281 0.675781 24.953125 -0.882812 24.953125 -2.875 L 24.953125 -3.0625 L 15.390625 -3.0625 L 15.390625 -0.515625 L 8.875 -0.515625 L 8.875 -21.4375 L 48.765625 -21.4375 L 48.765625 -3.0625 L 31.53125 -3.0625 L 31.53125 -2.875 C 31.53125 -1.800781 31.78125 -1.117188 32.28125 -0.828125 C 32.78125 -0.546875 33.910156 -0.40625 35.671875 -0.40625 Z M 35.671875 -0.40625 "/></g></g><g transform="translate(87.821603, 52.14917)"><g><path d="M 21.96875 -47.03125 L 21.96875 -41.84375 L 4.953125 -41.84375 L 4.953125 -47.03125 Z M 16.375 -9.28125 L 10.203125 -9.28125 L 10.203125 -2.703125 L 16.375 -2.703125 Z M 22.1875 -14.703125 L 22.1875 2.703125 L 10.203125 2.703125 L 10.203125 4.953125 L 4.4375 4.953125 L 4.4375 -14.703125 Z M 4.609375 -17.640625 L 4.609375 -22.828125 L 21.90625 -22.828125 L 21.90625 -17.640625 Z M 21.90625 -30.84375 L 21.90625 -25.703125 L 4.609375 -25.703125 L 4.609375 -30.84375 Z M 1.90625 -33.65625 L 1.90625 -39.078125 L 23.8125 -39.078125 L 23.8125 -33.65625 Z M 46.796875 -3.921875 L 46.796875 -11.984375 L 33.71875 -11.984375 L 33.71875 -3.921875 Z M 55.96875 -25.765625 L 43.578125 -25.765625 L 43.578125 -18.15625 L 53.65625 -18.15625 L 53.65625 4.78125 L 46.796875 4.78125 L 46.796875 2.25 L 33.71875 2.25 L 33.71875 5.015625 L 27.203125 5.015625 L 27.203125 -18.15625 L 36.609375 -18.15625 L 36.609375 -25.765625 L 24.203125 -25.765625 L 24.203125 -32.15625 L 36.609375 -32.15625 L 36.609375 -39.203125 C 34.992188 -39.003906 33.378906 -38.828125 31.765625 -38.671875 C 30.148438 -38.523438 28.570312 -38.390625 27.03125 -38.265625 C 26.914062 -39.117188 26.675781 -40.109375 26.3125 -41.234375 C 25.945312 -42.367188 25.570312 -43.300781 25.1875 -44.03125 C 28.070312 -44.300781 31.003906 -44.640625 33.984375 -45.046875 C 36.960938 -45.453125 39.804688 -45.921875 42.515625 -46.453125 C 45.222656 -46.992188 47.59375 -47.59375 49.625 -48.25 L 54.46875 -42.53125 C 52.8125 -42.039062 51.070312 -41.601562 49.25 -41.21875 C 47.425781 -40.832031 45.535156 -40.484375 43.578125 -40.171875 L 43.578125 -32.15625 L 55.96875 -32.15625 Z M 55.96875 -25.765625 "/></g></g><g transform="translate(145.463501, 52.14917)"><g><path d="M 49.921875 -27.375 L 55.515625 -24.953125 C 54.203125 -22.265625 52.738281 -19.566406 51.125 -16.859375 C 49.507812 -14.148438 47.894531 -11.835938 46.28125 -9.921875 L 40.40625 -13.3125 C 41.09375 -14.269531 41.832031 -15.363281 42.625 -16.59375 C 43.414062 -17.820312 44.175781 -19.09375 44.90625 -20.40625 L 32.734375 -20.40625 L 32.734375 -2.484375 C 32.734375 -0.671875 32.484375 0.710938 31.984375 1.671875 C 31.484375 2.628906 30.546875 3.359375 29.171875 3.859375 C 27.859375 4.359375 26.257812 4.65625 24.375 4.75 C 22.5 4.851562 20.3125 4.90625 17.8125 4.90625 C 17.65625 3.90625 17.335938 2.78125 16.859375 1.53125 C 16.378906 0.28125 15.867188 -0.785156 15.328125 -1.671875 C 16.484375 -1.628906 17.664062 -1.597656 18.875 -1.578125 C 20.082031 -1.566406 21.164062 -1.5625 22.125 -1.5625 C 23.09375 -1.5625 23.769531 -1.5625 24.15625 -1.5625 C 24.6875 -1.59375 25.054688 -1.6875 25.265625 -1.84375 C 25.484375 -2 25.59375 -2.285156 25.59375 -2.703125 L 25.59375 -20.40625 L 2.828125 -20.40625 L 2.828125 -26.921875 L 29.046875 -26.921875 C 26.929688 -27.804688 24.757812 -28.6875 22.53125 -29.5625 C 20.300781 -30.445312 18.265625 -31.238281 16.421875 -31.9375 L 19.828125 -37.125 C 21.128906 -36.65625 22.554688 -36.148438 24.109375 -35.609375 C 25.671875 -35.078125 27.257812 -34.503906 28.875 -33.890625 C 30.101562 -34.660156 31.351562 -35.515625 32.625 -36.453125 C 33.894531 -37.398438 35.085938 -38.351562 36.203125 -39.3125 L 8.359375 -39.3125 L 8.359375 -45.59375 L 42.828125 -45.59375 L 44.390625 -46 L 49.28125 -42.140625 C 47.4375 -40.296875 45.359375 -38.421875 43.046875 -36.515625 C 40.742188 -34.609375 38.382812 -32.832031 35.96875 -31.1875 C 36.925781 -30.800781 37.828125 -30.441406 38.671875 -30.109375 C 39.515625 -29.785156 40.265625 -29.472656 40.921875 -29.171875 L 39.546875 -26.921875 L 48.65625 -26.921875 Z M 49.921875 -27.375 "/></g></g><g transform="translate(203.105399, 52.14917)"><g><path d="M 4.09375 -15.109375 L 9.734375 -14.125 C 9.472656 -11.4375 9.039062 -8.742188 8.4375 -6.046875 C 7.84375 -3.359375 7.125 -1.09375 6.28125 0.75 C 5.664062 0.363281 4.828125 -0.078125 3.765625 -0.578125 C 2.710938 -1.078125 1.800781 -1.460938 1.03125 -1.734375 C 1.882812 -3.421875 2.550781 -5.460938 3.03125 -7.859375 C 3.507812 -10.265625 3.863281 -12.679688 4.09375 -15.109375 Z M 16.953125 -13.828125 L 22.015625 -15.453125 C 22.785156 -13.753906 23.515625 -11.882812 24.203125 -9.84375 C 24.898438 -7.8125 25.421875 -6.066406 25.765625 -4.609375 L 20.34375 -2.703125 C 20.113281 -4.171875 19.671875 -5.953125 19.015625 -8.046875 C 18.367188 -10.140625 17.679688 -12.066406 16.953125 -13.828125 Z M 34.9375 -39.078125 L 54.578125 -39.078125 C 54.578125 -39.078125 54.578125 -38.875 54.578125 -38.46875 C 54.578125 -38.070312 54.578125 -37.625 54.578125 -37.125 C 54.578125 -36.625 54.5625 -36.21875 54.53125 -35.90625 C 54.332031 -29.601562 54.128906 -24.242188 53.921875 -19.828125 C 53.710938 -15.410156 53.460938 -11.757812 53.171875 -8.875 C 52.878906 -5.988281 52.519531 -3.726562 52.09375 -2.09375 C 51.675781 -0.46875 51.160156 0.726562 50.546875 1.5 C 49.742188 2.570312 48.925781 3.316406 48.09375 3.734375 C 47.269531 4.160156 46.242188 4.472656 45.015625 4.671875 C 43.984375 4.828125 42.648438 4.90625 41.015625 4.90625 C 39.378906 4.90625 37.71875 4.882812 36.03125 4.84375 C 35.988281 3.84375 35.753906 2.675781 35.328125 1.34375 C 34.910156 0.0195312 34.375 -1.117188 33.71875 -2.078125 C 35.519531 -1.921875 37.191406 -1.820312 38.734375 -1.78125 C 40.273438 -1.75 41.425781 -1.734375 42.1875 -1.734375 C 43.1875 -1.734375 43.992188 -2.054688 44.609375 -2.703125 C 45.191406 -3.316406 45.679688 -4.71875 46.078125 -6.90625 C 46.484375 -9.101562 46.828125 -12.296875 47.109375 -16.484375 C 47.398438 -20.671875 47.644531 -26.03125 47.84375 -32.5625 L 31.9375 -32.5625 C 31.164062 -31.144531 30.375 -29.8125 29.5625 -28.5625 C 28.757812 -27.3125 27.914062 -26.164062 27.03125 -25.125 C 26.457031 -25.664062 25.628906 -26.3125 24.546875 -27.0625 C 23.472656 -27.8125 22.492188 -28.4375 21.609375 -28.9375 C 22.609375 -27.125 23.53125 -25.238281 24.375 -23.28125 C 25.226562 -21.320312 25.804688 -19.613281 26.109375 -18.15625 L 20.921875 -15.734375 C 20.847656 -16.191406 20.742188 -16.679688 20.609375 -17.203125 C 20.472656 -17.722656 20.304688 -18.269531 20.109375 -18.84375 L 16.828125 -18.625 L 16.828125 5.078125 L 10.78125 5.078125 L 10.78125 -18.15625 L 2.25 -17.578125 L 1.671875 -23.578125 L 5.9375 -23.75 C 6.363281 -24.289062 6.804688 -24.867188 7.265625 -25.484375 C 7.722656 -26.097656 8.164062 -26.710938 8.59375 -27.328125 C 7.75 -28.554688 6.691406 -29.890625 5.421875 -31.328125 C 4.148438 -32.765625 2.898438 -34.0625 1.671875 -35.21875 L 4.90625 -39.9375 C 5.132812 -39.75 5.363281 -39.546875 5.59375 -39.328125 C 5.820312 -39.117188 6.050781 -38.921875 6.28125 -38.734375 C 7.09375 -40.304688 7.878906 -41.992188 8.640625 -43.796875 C 9.410156 -45.609375 10.023438 -47.265625 10.484375 -48.765625 L 16.546875 -46.625 C 15.503906 -44.632812 14.414062 -42.597656 13.28125 -40.515625 C 12.144531 -38.441406 11.0625 -36.597656 10.03125 -34.984375 C 10.414062 -34.597656 10.78125 -34.191406 11.125 -33.765625 C 11.46875 -33.347656 11.773438 -32.945312 12.046875 -32.5625 C 13.085938 -34.175781 14.054688 -35.800781 14.953125 -37.4375 C 15.859375 -39.070312 16.65625 -40.597656 17.34375 -42.015625 L 23.171875 -39.59375 C 21.554688 -37.0625 19.785156 -34.410156 17.859375 -31.640625 C 15.941406 -28.878906 14.039062 -26.328125 12.15625 -23.984375 L 17.984375 -24.203125 C 17.671875 -24.898438 17.34375 -25.582031 17 -26.25 C 16.65625 -26.925781 16.3125 -27.570312 15.96875 -28.1875 L 20.8125 -30.3125 L 21.21875 -29.625 C 23.363281 -31.894531 25.253906 -34.757812 26.890625 -38.21875 C 28.523438 -41.675781 29.800781 -45.210938 30.71875 -48.828125 L 37.75 -47.328125 C 37.363281 -45.898438 36.929688 -44.503906 36.453125 -43.140625 C 35.972656 -41.773438 35.46875 -40.421875 34.9375 -39.078125 Z M 41.4375 -12.734375 L 35.5 -9.5625 C 35.15625 -10.789062 34.609375 -12.175781 33.859375 -13.71875 C 33.109375 -15.257812 32.269531 -16.828125 31.34375 -18.421875 C 30.425781 -20.015625 29.46875 -21.503906 28.46875 -22.890625 L 33.953125 -25.65625 C 34.953125 -24.34375 35.953125 -22.914062 36.953125 -21.375 C 37.953125 -19.84375 38.851562 -18.328125 39.65625 -16.828125 C 40.457031 -15.328125 41.050781 -13.960938 41.4375 -12.734375 Z M 41.4375 -12.734375 "/></g></g></g></svg>